<svg height="200pt" viewBox="0 0 75 75" width="500pt" xmlns="http://www.w3.org/2000/svg"><g fill="#231f20"><path d="m71.25 60c2.070312 0 3.75-1.679688 3.75-3.75v-52.5c0-2.070312-1.679688-3.75-3.75-3.75h-67.5c-2.070312 0-3.75 1.679688-3.75 3.75v52.5c0 2.070312 1.679688 3.75 3.75 3.75h3.75v2.5h-3.046875c-1.15625 0-2.246094.53125-2.960937 1.441406-.707032.910156-.960938 2.097656-.675782 3.214844l1.25 5c.414063 1.671875 1.914063 2.84375 3.636719 2.84375h63.59375c1.722656 0 3.222656-1.171875 3.636719-2.84375l1.25-5c.285156-1.117188.03125-2.304688-.675782-3.214844-.714843-.910156-1.804687-1.441406-2.960937-1.441406h-3.046875v-2.5zm-68.75-3.75v-52.5c0-.6875.5625-1.25 1.25-1.25h67.5c.6875 0 1.25.5625 1.25 1.25v52.5c0 .6875-.5625 1.25-1.25 1.25h-67.5c-.6875 0-1.25-.5625-1.25-1.25zm69.03125 9.234375c.242188.296875.324219.695313.230469 1.070313l-1.25 5c-.140625.554687-.636719.945312-1.214844.945312h-63.59375c-.578125 0-1.074219-.390625-1.214844-.945312l-1.25-5c-.09375-.378907-.011719-.773438.230469-1.078126.238281-.300781.597656-.476562.984375-.476562h21.796875v3.75c0 .6875.5625 1.25 1.25 1.25h20c.6875 0 1.25-.5625 1.25-1.25v-3.75h21.796875c.386719 0 .75.175781.984375.484375zm-42.78125-.484375h17.5v2.5h-17.5zm36.25-2.5h-55v-2.5h55zm0 0"/><path d="m71.25 53.015625v-46.03125c0-1.785156-1.449219-3.234375-3.234375-3.234375h-61.03125c-1.785156 0-3.234375 1.449219-3.234375 3.234375v46.03125c0 1.785156 1.449219 3.234375 3.234375 3.234375h61.03125c1.785156 0 3.234375-1.449219 3.234375-3.234375zm-64.265625-46.765625h61.03125c.40625 0 .734375.328125.734375.734375v4.265625h-62.5v-4.265625c0-.40625.328125-.734375.734375-.734375zm-.734375 46.765625v-39.265625h62.5v39.265625c0 .40625-.328125.734375-.734375.734375h-61.03125c-.40625 0-.734375-.328125-.734375-.734375zm0 0"/><path d="m8.75 7.5h2.5v2.5h-2.5zm0 0"/><path d="m12.5 7.5h2.5v2.5h-2.5zm0 0"/><path d="m16.25 7.5h2.5v2.5h-2.5zm0 0"/><path d="m63.75 7.5h2.5v2.5h-2.5zm0 0"/><path d="m40 25h-5c-2.070312 0-3.75 1.679688-3.75 3.75v10c0 2.070312 1.679688 3.75 3.75 3.75h5c2.070312 0 3.75-1.679688 3.75-3.75v-10c0-2.070312-1.679688-3.75-3.75-3.75zm1.25 13.75c0 .6875-.5625 1.25-1.25 1.25h-5c-.6875 0-1.25-.5625-1.25-1.25v-10c0-.6875.5625-1.25 1.25-1.25h5c.6875 0 1.25.5625 1.25 1.25zm0 0"/><path d="m27.5 35h-1.25v-8.75c0-.6875-.5625-1.25-1.25-1.25s-1.25.5625-1.25 1.25v8.75h-6.25c-.6875 0-1.25-.5625-1.25-1.25v-7.5c0-.6875-.5625-1.25-1.25-1.25s-1.25.5625-1.25 1.25v7.5c0 2.070312 1.679688 3.75 3.75 3.75h6.25v3.75c0 .6875.5625 1.25 1.25 1.25s1.25-.5625 1.25-1.25v-3.75h1.25c.6875 0 1.25-.5625 1.25-1.25s-.5625-1.25-1.25-1.25zm0 0"/><path d="m60 35h-1.25v-8.75c0-.6875-.5625-1.25-1.25-1.25s-1.25.5625-1.25 1.25v8.75h-6.25c-.6875 0-1.25-.5625-1.25-1.25v-7.5c0-.6875-.5625-1.25-1.25-1.25s-1.25.5625-1.25 1.25v7.5c0 2.070312 1.679688 3.75 3.75 3.75h6.25v3.75c0 .6875.5625 1.25 1.25 1.25s1.25-.5625 1.25-1.25v-3.75h1.25c.6875 0 1.25-.5625 1.25-1.25s-.5625-1.25-1.25-1.25zm0 0"/></g></svg>